<svg xmlns="http://www.w3.org/2000/svg" xmlns:xlink="http://www.w3.org/1999/xlink"><polygon points="0,150 0,100 1,101 2,100 3,99 4,100 5,99 6,100 7,101 8,102 9,103 10,104 11,105 12,104 13,105 14,106 15,107 16,108 17,107 18,108 19,107 20,106 21,105 22,104 23,105 24,106 25,105 26,106 27,105 28,106 29,107 30,108 31,109 32,108 33,109 34,110 35,109 36,110 37,109 38,110 39,109 40,110 41,109 42,110 43,111 44,110 45,109 46,110 47,109 48,108 49,107 50,106 51,107 52,106 53,105 54,106 55,105 56,106 57,105 58,104 59,105 60,106 61,105 62,106 63,107 64,108 65,109 66,108 67,109 68,110 69,111 70,112 71,113 72,112 73,111 74,112 75,113 76,114 77,113 78,112 79,111 80,110 81,109 82,108 83,109 84,108 85,107 86,106 87,107 88,106 89,107 90,106 91,107 92,106 93,107 94,106 95,105 96,106 97,107 98,106 99,105 100,106 101,107 102,108 103,109 104,110 105,111 106,112 107,113 108,112 109,111 110,112 111,111 112,110 113,109 114,108 115,107 116,106 117,107 118,106 119,107 120,106 121,107 122,106 123,105 124,104 125,105 126,106 127,105 128,104 129,105 130,104 131,103 132,102 133,101 134,102 135,103 136,104 137,103 138,102 139,103 140,104 141,105 142,104 143,105 144,104 145,103 146,104 147,103 148,102 149,103 150,102 151,101 152,100 153,99 154,100 155,101 156,100 157,101 158,102 159,103 160,102 161,103 162,102 163,103 164,102 165,103 166,102 167,103 168,102 169,101 170,102 171,103 172,102 173,103 174,104 175,105 176,104 177,103 178,104 179,103 180,102 181,101 182,100 183,99 184,100 185,99 186,100 187,101 188,100 189,99 190,100 191,99 192,98 193,99 194,98 195,99 196,100 197,101 198,100 199,99 200,98 201,99 202,100 203,101 204,102 205,101 206,102 207,101 208,100 209,99 210,100 211,101 212,102 213,103 214,102 215,101 216,102 217,101 218,100 219,99 220,98 221,99 222,100 223,99 224,98 225,97 226,98 227,99 228,98 229,97 230,96 231,95 232,94 233,95 234,96 235,97 236,96 237,95 238,94 239,93 240,92 241,91 242,90 243,91 244,90 245,91 246,92 247,91 248,90 249,91 250,92 251,93 252,94 253,95 254,94 255,95 256,94 257,95 258,94 259,95 260,94 261,95 262,96 263,97 264,98 265,99 266,98 267,97 268,98 269,97 270,98 271,97 272,96 273,97 274,96 275,95 276,96 277,95 278,94 279,93 280,92 281,93 282,92 283,91 284,90 285,91 286,90 287,91 288,90 289,89 290,90 291,91 292,92 293,91 294,92 295,91 296,92 297,91 298,92 299,93 300,94 301,95 302,96 303,97 304,98 305,99 306,100 307,101 308,100 309,99 310,98 311,97 312,96 313,97 314,96 315,97 316,98 317,99 318,98 319,99 320,98 321,99 322,98 323,99 324,98 325,99 326,98 327,97 328,96 329,95 330,94 331,93 332,92 333,93 334,92 335,93 336,94 337,93 338,94 339,95 340,94 341,93 342,92 343,91 344,92 345,91 346,90 347,91 348,90 349,89 350,88 351,87 352,86 353,87 354,86 355,87 356,88 357,87 358,88 359,89 360,90 361,91 362,90 363,91 364,92 365,93 366,92 367,93 368,92 369,93 370,94 371,93 372,94 373,95 374,96 375,95 376,96 377,95 378,96 379,97 380,96 381,95 382,94 383,93 384,94 385,93 386,92 387,93 388,92 389,93 390,92 391,93 392,94 393,93 394,94 395,95 396,96 397,95 398,94 399,95 400,150 " style="fill:rgb(61,162,91);stroke:rgb(0,62,0)"></polygon><polygon points="0,150 0,100 1,101 2,100 3,101 4,102 5,103 6,102 7,101 8,100 9,101 10,102 11,103 12,104 13,105 14,104 15,103 16,104 17,103 18,104 19,105 20,104 21,103 22,104 23,103 24,102 25,101 26,102 27,103 28,104 29,103 30,102 31,101 32,100 33,99 34,100 35,101 36,100 37,101 38,100 39,101 40,100 41,99 42,98 43,97 44,98 45,99 46,98 47,97 48,96 49,95 50,94 51,93 52,92 53,93 54,94 55,95 56,94 57,95 58,96 59,97 60,96 61,97 62,96 63,97 64,98 65,99 66,100 67,101 68,102 69,103 70,102 71,103 72,102 73,101 74,100 75,99 76,98 77,97 78,98 79,97 80,98 81,99 82,100 83,99 84,98 85,99 86,98 87,99 88,100 89,99 90,98 91,99 92,98 93,97 94,98 95,99 96,100 97,101 98,100 99,99 100,100 101,99 102,98 103,99 104,100 105,101 106,102 107,103 108,102 109,101 110,100 111,99 112,100 113,101 114,100 115,99 116,100 117,101 118,100 119,99 120,98 121,99 122,100 123,101 124,100 125,101 126,102 127,101 128,102 129,101 130,100 131,99 132,100 133,99 134,98 135,99 136,98 137,99 138,100 139,101 140,102 141,101 142,102 143,101 144,100 145,101 146,100 147,99 148,100 149,99 150,98 151,97 152,96 153,95 154,96 155,95 156,96 157,97 158,96 159,97 160,96 161,95 162,94 163,95 164,96 165,95 166,96 167,95 168,96 169,97 170,96 171,97 172,96 173,95 174,94 175,93 176,92 177,91 178,92 179,91 180,90 181,89 182,88 183,87 184,88 185,89 186,88 187,87 188,88 189,89 190,88 191,89 192,88 193,87 194,88 195,87 196,86 197,87 198,88 199,87 200,86 201,85 202,86 203,85 204,86 205,85 206,84 207,83 208,82 209,81 210,80 211,81 212,82 213,83 214,82 215,83 216,82 217,81 218,80 219,79 220,80 221,81 222,80 223,79 224,80 225,79 226,80 227,81 228,80 229,81 230,82 231,83 232,82 233,81 234,82 235,81 236,82 237,81 238,80 239,79 240,80 241,79 242,78 243,77 244,78 245,77 246,78 247,79 248,78 249,79 250,78 251,77 252,78 253,79 254,80 255,79 256,78 257,77 258,76 259,75 260,74 261,73 262,72 263,71 264,70 265,71 266,70 267,71 268,72 269,71 270,70 271,71 272,72 273,71 274,72 275,73 276,72 277,71 278,70 279,69 280,70 281,71 282,72 283,71 284,72 285,73 286,74 287,73 288,72 289,71 290,72 291,73 292,72 293,71 294,70 295,69 296,68 297,67 298,68 299,67 300,66 301,65 302,64 303,65 304,66 305,65 306,66 307,65 308,64 309,65 310,64 311,65 312,66 313,65 314,66 315,67 316,66 317,67 318,68 319,69 320,70 321,69 322,70 323,69 324,68 325,67 326,68 327,69 328,68 329,67 330,66 331,65 332,66 333,67 334,68 335,69 336,70 337,69 338,70 339,69 340,68 341,69 342,70 343,69 344,70 345,71 346,70 347,69 348,70 349,71 350,70 351,71 352,72 353,71 354,70 355,71 356,70 357,71 358,70 359,69 360,68 361,69 362,70 363,71 364,72 365,73 366,72 367,71 368,72 369,71 370,72 371,71 372,70 373,71 374,72 375,73 376,74 377,75 378,76 379,75 380,74 381,73 382,72 383,71 384,72 385,73 386,72 387,73 388,72 389,73 390,72 391,73 392,72 393,73 394,72 395,73 396,74 397,75 398,76 399,75 400,150 " style="fill:rgb(177,232,51);stroke:rgb(77,132,0)"></polygon><polygon points="0,150 0,100 1,101 2,100 3,99 4,100 5,99 6,100 7,101 8,102 9,101 10,102 11,103 12,104 13,103 14,102 15,101 16,100 17,101 18,102 19,101 20,100 21,101 22,102 23,103 24,104 25,103 26,102 27,103 28,104 29,105 30,106 31,105 32,104 33,103 34,104 35,105 36,106 37,105 38,104 39,105 40,104 41,105 42,106 43,107 44,108 45,109 46,110 47,111 48,112 49,111 50,112 51,113 52,112 53,111 54,110 55,111 56,112 57,111 58,110 59,111 60,112 61,113 62,114 63,113 64,114 65,115 66,116 67,115 68,116 69,117 70,116 71,115 72,116 73,115 74,116 75,115 76,116 77,115 78,116 79,117 80,118 81,117 82,118 83,117 84,118 85,117 86,116 87,115 88,114 89,115 90,114 91,115 92,114 93,113 94,114 95,113 96,112 97,111 98,110 99,109 100,110 101,109 102,108 103,109 104,108 105,107 106,106 107,105 108,106 109,105 110,106 111,105 112,106 113,107 114,108 115,109 116,108 117,107 118,108 119,109 120,108 121,107 122,106 123,105 124,104 125,105 126,104 127,103 128,102 129,103 130,102 131,101 132,100 133,99 134,98 135,99 136,98 137,99 138,98 139,97 140,98 141,97 142,98 143,97 144,98 145,99 146,100 147,101 148,102 149,101 150,100 151,99 152,98 153,97 154,96 155,95 156,96 157,97 158,96 159,97 160,96 161,97 162,96 163,95 164,94 165,95 166,96 167,95 168,96 169,97 170,96 171,97 172,96 173,95 174,96 175,95 176,96 177,97 178,98 179,97 180,98 181,97 182,98 183,99 184,100 185,101 186,102 187,101 188,100 189,99 190,98 191,99 192,98 193,99 194,100 195,99 196,98 197,97 198,96 199,97 200,98 201,99 202,100 203,101 204,102 205,101 206,100 207,99 208,100 209,99 210,100 211,99 212,98 213,99 214,98 215,99 216,100 217,101 218,100 219,101 220,100 221,101 222,102 223,101 224,100 225,101 226,102 227,103 228,102 229,101 230,100 231,101 232,102 233,101 234,102 235,101 236,100 237,101 238,102 239,101 240,102 241,101 242,102 243,101 244,100 245,99 246,98 247,99 248,98 249,99 250,100 251,101 252,102 253,103 254,104 255,105 256,106 257,107 258,108 259,109 260,110 261,111 262,110 263,109 264,108 265,107 266,106 267,107 268,108 269,109 270,108 271,107 272,108 273,107 274,106 275,107 276,106 277,107 278,106 279,105 280,104 281,105 282,104 283,103 284,102 285,101 286,100 287,101 288,100 289,99 290,100 291,101 292,100 293,101 294,102 295,101 296,100 297,99 298,98 299,99 300,100 301,101 302,102 303,101 304,100 305,101 306,100 307,101 308,102 309,101 310,102 311,103 312,102 313,103 314,102 315,101 316,102 317,101 318,100 319,99 320,98 321,99 322,100 323,99 324,98 325,99 326,98 327,99 328,100 329,99 330,98 331,97 332,96 333,95 334,96 335,95 336,94 337,95 338,94 339,95 340,96 341,95 342,96 343,97 344,98 345,99 346,98 347,97 348,96 349,97 350,96 351,95 352,94 353,93 354,94 355,93 356,92 357,93 358,94 359,93 360,92 361,91 362,92 363,93 364,94 365,93 366,94 367,95 368,94 369,93 370,94 371,95 372,94 373,93 374,92 375,93 376,92 377,93 378,92 379,93 380,94 381,93 382,94 383,93 384,94 385,95 386,96 387,97 388,98 389,99 390,98 391,97 392,96 393,97 394,98 395,97 396,98 397,99 398,98 399,99 400,150 " style="fill:rgb(36,163,208);stroke:rgb(0,63,108)"></polygon><polygon points="0,150 0,100 1,99 2,98 3,99 4,100 5,101 6,100 7,101 8,100 9,99 10,98 11,99 12,98 13,99 14,100 15,99 16,100 17,101 18,100 19,101 20,102 21,101 22,102 23,103 24,102 25,101 26,102 27,103 28,102 29,101 30,100 31,99 32,100 33,99 34,98 35,99 36,98 37,97 38,98 39,99 40,100 41,101 42,102 43,103 44,104 45,105 46,104 47,103 48,104 49,105 50,104 51,103 52,102 53,101 54,100 55,101 56,100 57,99 58,100 59,99 60,100 61,101 62,102 63,103 64,102 65,103 66,104 67,103 68,102 69,101 70,100 71,99 72,100 73,99 74,98 75,99 76,98 77,99 78,98 79,99 80,98 81,99 82,98 83,99 84,100 85,101 86,100 87,101 88,100 89,101 90,102 91,101 92,100 93,101 94,102 95,103 96,102 97,101 98,102 99,103 100,104 101,103 102,104 103,103 104,102 105,103 106,102 107,103 108,102 109,103 110,104 111,105 112,104 113,103 114,102 115,101 116,100 117,101 118,102 119,103 120,104 121,105 122,106 123,107 124,106 125,107 126,106 127,105 128,104 129,103 130,104 131,103 132,102 133,103 134,102 135,103 136,102 137,101 138,102 139,103 140,102 141,101 142,100 143,101 144,102 145,101 146,102 147,103 148,102 149,101 150,100 151,101 152,102 153,103 154,102 155,101 156,102 157,101 158,100 159,99 160,100 161,99 162,100 163,101 164,100 165,101 166,100 167,99 168,98 169,97 170,96 171,95 172,94 173,95 174,94 175,95 176,96 177,95 178,94 179,93 180,92 181,93 182,94 183,93 184,92 185,91 186,90 187,91 188,92 189,91 190,90 191,91 192,92 193,93 194,94 195,95 196,96 197,95 198,94 199,95 200,96 201,95 202,94 203,95 204,94 205,93 206,94 207,95 208,96 209,97 210,98 211,99 212,98 213,99 214,98 215,99 216,100 217,99 218,100 219,99 220,98 221,99 222,98 223,97 224,96 225,95 226,96 227,97 228,98 229,99 230,98 231,97 232,98 233,99 234,100 235,99 236,100 237,101 238,100 239,101 240,100 241,101 242,100 243,101 244,100 245,99 246,100 247,99 248,100 249,101 250,100 251,101 252,102 253,103 254,102 255,101 256,102 257,103 258,104 259,105 260,106 261,107 262,106 263,107 264,108 265,109 266,110 267,111 268,110 269,111 270,112 271,113 272,114 273,113 274,112 275,111 276,110 277,109 278,108 279,109 280,108 281,107 282,106 283,105 284,106 285,107 286,106 287,107 288,108 289,109 290,110 291,111 292,112 293,111 294,110 295,109 296,110 297,109 298,108 299,107 300,108 301,109 302,108 303,109 304,108 305,107 306,108 307,109 308,108 309,107 310,108 311,109 312,108 313,109 314,110 315,111 316,110 317,109 318,108 319,107 320,106 321,105 322,104 323,103 324,104 325,103 326,102 327,103 328,104 329,103 330,104 331,105 332,104 333,105 334,104 335,103 336,104 337,103 338,102 339,101 340,100 341,101 342,102 343,103 344,102 345,103 346,104 347,105 348,106 349,105 350,104 351,105 352,104 353,103 354,102 355,103 356,104 357,105 358,104 359,105 360,106 361,105 362,106 363,105 364,104 365,105 366,104 367,105 368,106 369,107 370,106 371,107 372,108 373,109 374,108 375,109 376,108 377,109 378,110 379,109 380,110 381,109 382,110 383,109 384,108 385,107 386,106 387,105 388,106 389,105 390,104 391,103 392,104 393,105 394,106 395,105 396,104 397,103 398,104 399,103 400,150 " style="fill:rgb(171,37,221);stroke:rgb(71,0,121)"></polygon><polygon points="0,150 0,100 1,101 2,102 3,103 4,102 5,101 6,100 7,101 8,100 9,101 10,100 11,99 12,100 13,101 14,100 15,101 16,102 17,101 18,102 19,103 20,104 21,105 22,106 23,107 24,106 25,107 26,106 27,107 28,108 29,109 30,110 31,111 32,110 33,111 34,110 35,109 36,108 37,109 38,108 39,109 40,108 41,109 42,110 43,109 44,110 45,111 46,110 47,111 48,110 49,109 50,108 51,107 52,106 53,107 54,108 55,109 56,108 57,107 58,106 59,107 60,106 61,105 62,106 63,105 64,106 65,107 66,108 67,109 68,108 69,109 70,110 71,109 72,110 73,109 74,108 75,109 76,110 77,109 78,110 79,111 80,110 81,109 82,110 83,111 84,110 85,111 86,110 87,111 88,112 89,113 90,112 91,111 92,112 93,111 94,110 95,109 96,110 97,109 98,108 99,107 100,106 101,107 102,106 103,105 104,104 105,103 106,102 107,101 108,102 109,103 110,102 111,103 112,102 113,101 114,100 115,99 116,100 117,101 118,100 119,99 120,98 121,99 122,98 123,99 124,98 125,99 126,98 127,99 128,98 129,99 130,100 131,101 132,102 133,103 134,102 135,101 136,100 137,99 138,100 139,99 140,100 141,101 142,100 143,101 144,102 145,103 146,102 147,103 148,102 149,103 150,102 151,101 152,102 153,103 154,104 155,105 156,106 157,105 158,106 159,107 160,106 161,107 162,106 163,107 164,106 165,107 166,108 167,107 168,108 169,109 170,108 171,107 172,106 173,105 174,106 175,105 176,106 177,107 178,106 179,105 180,104 181,105 182,104 183,105 184,104 185,105 186,106 187,105 188,104 189,105 190,104 191,105 192,104 193,103 194,102 195,103 196,104 197,103 198,102 199,101 200,100 201,101 202,100 203,99 204,100 205,99 206,100 207,99 208,98 209,99 210,98 211,97 212,98 213,99 214,100 215,99 216,98 217,99 218,98 219,97 220,96 221,97 222,96 223,95 224,96 225,95 226,96 227,97 228,96 229,97 230,98 231,97 232,96 233,97 234,98 235,99 236,98 237,97 238,96 239,95 240,96 241,95 242,94 243,95 244,94 245,93 246,92 247,91 248,90 249,89 250,90 251,89 252,90 253,91 254,92 255,91 256,92 257,93 258,92 259,93 260,92 261,91 262,90 263,89 264,90 265,89 266,90 267,91 268,92 269,93 270,94 271,95 272,96 273,95 274,96 275,95 276,96 277,95 278,94 279,95 280,94 281,95 282,96 283,97 284,96 285,95 286,96 287,95 288,96 289,95 290,96 291,95 292,96 293,97 294,96 295,95 296,96 297,95 298,96 299,95 300,96 301,97 302,98 303,99 304,98 305,99 306,98 307,99 308,98 309,99 310,98 311,99 312,98 313,97 314,96 315,97 316,96 317,97 318,98 319,99 320,100 321,99 322,98 323,99 324,98 325,99 326,98 327,99 328,98 329,99 330,100 331,101 332,102 333,101 334,100 335,99 336,98 337,97 338,98 339,97 340,98 341,97 342,98 343,99 344,100 345,101 346,102 347,101 348,102 349,103 350,102 351,103 352,104 353,105 354,106 355,105 356,104 357,103 358,102 359,103 360,104 361,105 362,104 363,105 364,106 365,107 366,108 367,109 368,110 369,111 370,110 371,111 372,110 373,109 374,110 375,109 376,108 377,109 378,108 379,109 380,110 381,109 382,108 383,107 384,106 385,107 386,106 387,107 388,108 389,109 390,108 391,109 392,110 393,111 394,112 395,111 396,112 397,113 398,112 399,113 400,150 " style="fill:rgb(152,97,1);stroke:rgb(52,0,0)"></polygon><polygon points="0,150 0,100 1,101 2,102 3,101 4,102 5,103 6,104 7,103 8,102 9,103 10,104 11,103 12,104 13,105 14,106 15,107 16,108 17,109 18,110 19,109 20,108 21,107 22,108 23,109 24,108 25,107 26,108 27,107 28,106 29,107 30,106 31,107 32,108 33,107 34,106 35,105 36,104 37,105 38,106 39,107 40,108 41,109 42,108 43,107 44,108 45,107 46,108 47,109 48,110 49,109 50,108 51,107 52,108 53,107 54,108 55,107 56,108 57,109 58,108 59,107 60,106 61,105 62,104 63,105 64,104 65,105 66,104 67,103 68,102 69,103 70,104 71,103 72,104 73,103 74,104 75,105 76,106 77,105 78,104 79,103 80,102 81,101 82,100 83,101 84,100 85,99 86,98 87,99 88,98 89,97 90,98 91,97 92,96 93,97 94,96 95,95 96,94 97,93 98,94 99,93 100,92 101,93 102,92 103,93 104,92 105,91 106,92 107,93 108,92 109,91 110,92 111,93 112,92 113,91 114,90 115,89 116,90 117,91 118,92 119,91 120,92 121,93 122,92 123,93 124,92 125,93 126,94 127,95 128,94 129,95 130,94 131,95 132,94 133,95 134,94 135,93 136,94 137,93 138,94 139,95 140,96 141,95 142,94 143,95 144,96 145,97 146,98 147,99 148,98 149,99 150,98 151,99 152,100 153,101 154,100 155,101 156,102 157,103 158,102 159,103 160,104 161,103 162,104 163,103 164,102 165,103 166,104 167,103 168,104 169,103 170,102 171,103 172,102 173,101 174,102 175,103 176,102 177,103 178,102 179,103 180,104 181,103 182,104 183,103 184,104 185,105 186,106 187,105 188,106 189,107 190,108 191,107 192,108 193,109 194,108 195,109 196,110 197,111 198,112 199,111 200,110 201,109 202,110 203,111 204,110 205,111 206,110 207,111 208,110 209,109 210,110 211,111 212,110 213,109 214,110 215,109 216,110 217,111 218,112 219,113 220,114 221,115 222,114 223,113 224,114 225,115 226,116 227,115 228,116 229,115 230,116 231,115 232,114 233,113 234,114 235,115 236,116 237,115 238,116 239,117 240,118 241,119 242,120 243,119 244,118 245,117 246,116 247,117 248,118 249,119 250,120 251,121 252,120 253,119 254,118 255,119 256,120 257,119 258,118 259,119 260,120 261,121 262,120 263,119 264,118 265,117 266,118 267,119 268,120 269,119 270,118 271,117 272,118 273,119 274,118 275,119 276,120 277,121 278,122 279,123 280,124 281,123 282,122 283,121 284,120 285,119 286,118 287,117 288,118 289,117 290,118 291,117 292,116 293,115 294,114 295,115 296,114 297,113 298,114 299,115 300,116 301,115 302,114 303,115 304,116 305,115 306,114 307,115 308,114 309,115 310,116 311,117 312,118 313,119 314,118 315,117 316,118 317,117 318,116 319,115 320,116 321,115 322,116 323,117 324,116 325,117 326,118 327,119 328,118 329,119 330,120 331,119 332,118 333,119 334,120 335,119 336,120 337,119 338,118 339,117 340,118 341,119 342,118 343,117 344,118 345,117 346,116 347,115 348,114 349,115 350,116 351,117 352,118 353,119 354,118 355,119 356,120 357,121 358,120 359,121 360,120 361,121 362,120 363,119 364,118 365,117 366,116 367,115 368,116 369,115 370,116 371,117 372,116 373,115 374,114 375,113 376,114 377,115 378,116 379,117 380,118 381,119 382,120 383,119 384,120 385,121 386,122 387,121 388,120 389,121 390,120 391,119 392,118 393,119 394,120 395,121 396,122 397,123 398,124 399,125 400,150 " style="fill:rgb(249,98,96);stroke:rgb(149,0,0)"></polygon><polygon points="0,150 0,100 1,99 2,98 3,97 4,96 5,97 6,98 7,99 8,98 9,97 10,96 11,95 12,94 13,95 14,96 15,95 16,94 17,95 18,96 19,95 20,94 21,93 22,92 23,91 24,90 25,91 26,90 27,91 28,92 29,93 30,92 31,91 32,90 33,91 34,92 35,91 36,92 37,93 38,92 39,91 40,92 41,93 42,94 43,95 44,94 45,93 46,92 47,91 48,92 49,93 50,92 51,93 52,94 53,93 54,94 55,93 56,92 57,91 58,92 59,93 60,94 61,93 62,94 63,93 64,94 65,95 66,96 67,95 68,94 69,93 70,92 71,93 72,92 73,91 74,92 75,93 76,94 77,93 78,92 79,93 80,94 81,93 82,94 83,93 84,94 85,95 86,96 87,97 88,98 89,97 90,96 91,95 92,94 93,93 94,94 95,93 96,94 97,95 98,94 99,95 100,94 101,95 102,94 103,95 104,96 105,95 106,94 107,93 108,92 109,93 110,92 111,93 112,94 113,95 114,94 115,93 116,94 117,95 118,96 119,95 120,94 121,93 122,94 123,93 124,94 125,93 126,92 127,91 128,90 129,89 130,90 131,89 132,90 133,91 134,92 135,91 136,92 137,91 138,90 139,91 140,90 141,91 142,90 143,89 144,88 145,87 146,88 147,89 148,90 149,91 150,92 151,91 152,92 153,93 154,94 155,95 156,94 157,95 158,94 159,95 160,96 161,95 162,94 163,93 164,94 165,95 166,96 167,95 168,94 169,95 170,94 171,95 172,96 173,97 174,96 175,97 176,96 177,97 178,96 179,97 180,98 181,97 182,98 183,99 184,98 185,99 186,98 187,97 188,98 189,97 190,96 191,95 192,94 193,93 194,94 195,95 196,96 197,97 198,98 199,97 200,98 201,97 202,98 203,99 204,98 205,97 206,96 207,97 208,98 209,99 210,100 211,101 212,102 213,101 214,100 215,101 216,100 217,101 218,102 219,101 220,102 221,103 222,104 223,103 224,104 225,103 226,102 227,103 228,102 229,101 230,102 231,101 232,102 233,101 234,102 235,103 236,104 237,103 238,102 239,101 240,100 241,101 242,102 243,103 244,104 245,103 246,102 247,101 248,100 249,101 250,100 251,101 252,100 253,99 254,100 255,99 256,98 257,97 258,98 259,97 260,96 261,95 262,96 263,97 264,96 265,95 266,94 267,95 268,94 269,93 270,92 271,93 272,92 273,93 274,92 275,93 276,94 277,95 278,94 279,95 280,96 281,97 282,98 283,99 284,100 285,99 286,100 287,101 288,102 289,101 290,100 291,101 292,102 293,103 294,104 295,103 296,102 297,101 298,102 299,101 300,102 301,101 302,102 303,101 304,102 305,103 306,102 307,103 308,102 309,103 310,104 311,105 312,104 313,103 314,102 315,103 316,104 317,103 318,104 319,105 320,104 321,103 322,102 323,103 324,102 325,101 326,102 327,103 328,102 329,101 330,102 331,101 332,100 333,99 334,100 335,101 336,102 337,101 338,100 339,101 340,100 341,99 342,100 343,99 344,98 345,99 346,100 347,99 348,98 349,97 350,98 351,99 352,98 353,97 354,98 355,97 356,96 357,95 358,96 359,95 360,94 361,95 362,94 363,93 364,94 365,95 366,96 367,97 368,98 369,99 370,100 371,101 372,100 373,101 374,100 375,101 376,100 377,99 378,98 379,97 380,96 381,95 382,94 383,93 384,94 385,95 386,94 387,95 388,96 389,97 390,96 391,97 392,98 393,99 394,98 395,97 396,98 397,97 398,96 399,97 400,150 " style="fill:rgb(23,208,25);stroke:rgb(0,108,0)"></polygon><polygon points="0,150 0,100 1,99 2,100 3,101 4,100 5,101 6,100 7,101 8,100 9,101 10,102 11,101 12,102 13,103 14,102 15,101 16,102 17,103 18,102 19,101 20,100 21,101 22,100 23,99 24,98 25,97 26,96 27,97 28,96 29,97 30,98 31,99 32,100 33,101 34,102 35,103 36,104 37,103 38,104 39,103 40,104 41,105 42,104 43,105 44,106 45,107 46,108 47,109 48,110 49,111 50,112 51,113 52,112 53,111 54,112 55,111 56,110 57,111 58,112 59,113 60,114 61,115 62,116 63,115 64,114 65,113 66,112 67,111 68,112 69,113 70,112 71,111 72,112 73,113 74,114 75,113 76,112 77,113 78,114 79,115 80,114 81,113 82,112 83,111 84,110 85,109 86,110 87,109 88,108 89,109 90,108 91,107 92,106 93,107 94,108 95,109 96,108 97,109 98,108 99,109 100,108 101,107 102,106 103,107 104,106 105,105 106,106 107,105 108,104 109,105 110,106 111,107 112,106 113,105 114,104 115,103 116,104 117,105 118,104 119,103 120,104 121,103 122,104 123,105 124,104 125,105 126,104 127,105 128,104 129,103 130,102 131,101 132,102 133,101 134,102 135,103 136,104 137,103 138,104 139,105 140,104 141,105 142,104 143,103 144,104 145,105 146,106 147,105 148,104 149,103 150,104 151,105 152,106 153,107 154,106 155,107 156,108 157,109 158,110 159,109 160,110 161,109 162,110 163,109 164,110 165,111 166,112 167,113 168,114 169,115 170,114 171,115 172,116 173,117 174,116 175,117 176,116 177,115 178,114 179,113 180,114 181,115 182,116 183,117 184,118 185,119 186,120 187,121 188,122 189,121 190,120 191,121 192,120 193,121 194,122 195,123 196,122 197,123 198,122 199,121 200,120 201,119 202,120 203,119 204,120 205,121 206,122 207,123 208,122 209,121 210,120 211,119 212,118 213,117 214,116 215,117 216,118 217,117 218,116 219,115 220,116 221,117 222,118 223,119 224,120 225,119 226,118 227,117 228,118 229,119 230,120 231,119 232,118 233,117 234,118 235,119 236,118 237,117 238,116 239,117 240,118 241,119 242,120 243,121 244,120 245,121 246,120 247,121 248,122 249,123 250,124 251,125 252,124 253,123 254,122 255,121 256,120 257,119 258,120 259,121 260,120 261,119 262,120 263,121 264,120 265,121 266,122 267,123 268,122 269,121 270,122 271,123 272,124 273,125 274,126 275,125 276,126 277,125 278,124 279,125 280,126 281,125 282,126 283,125 284,124 285,125 286,126 287,125 288,124 289,125 290,126 291,125 292,126 293,125 294,124 295,123 296,122 297,123 298,124 299,125 300,124 301,123 302,122 303,121 304,122 305,123 306,122 307,123 308,122 309,123 310,124 311,125 312,126 313,127 314,126 315,125 316,126 317,127 318,126 319,125 320,126 321,127 322,126 323,127 324,128 325,127 326,128 327,127 328,126 329,127 330,126 331,127 332,128 333,127 334,128 335,127 336,126 337,125 338,126 339,125 340,124 341,125 342,126 343,127 344,128 345,127 346,128 347,129 348,128 349,129 350,128 351,129 352,128 353,127 354,126 355,125 356,126 357,125 358,126 359,127 360,126 361,125 362,124 363,125 364,126 365,125 366,124 367,125 368,124 369,123 370,124 371,123 372,124 373,125 374,124 375,125 376,124 377,125 378,126 379,127 380,126 381,127 382,128 383,129 384,130 385,131 386,130 387,131 388,132 389,131 390,130 391,131 392,130 393,129 394,130 395,129 396,130 397,129 398,130 399,129 400,150 " style="fill:rgb(246,113,200);stroke:rgb(146,13,100)"></polygon><polygon points="0,150 0,100 1,101 2,102 3,101 4,100 5,99 6,98 7,99 8,100 9,101 10,102 11,101 12,100 13,101 14,102 15,103 16,104 17,105 18,104 19,105 20,104 21,105 22,104 23,103 24,102 25,101 26,102 27,101 28,100 29,99 30,100 31,99 32,100 33,101 34,102 35,101 36,102 37,101 38,100 39,99 40,100 41,99 42,100 43,101 44,102 45,103 46,104 47,103 48,102 49,101 50,102 51,101 52,102 53,101 54,100 55,99 56,98 57,97 58,98 59,99 60,98 61,97 62,96 63,95 64,96 65,95 66,94 67,93 68,92 69,93 70,94 71,93 72,94 73,95 74,94 75,93 76,92 77,93 78,92 79,91 80,92 81,93 82,92 83,91 84,90 85,89 86,90 87,91 88,92 89,93 90,94 91,93 92,94 93,95 94,96 95,97 96,98 97,97 98,96 99,97 100,96 101,97 102,96 103,97 104,96 105,95 106,94 107,95 108,96 109,97 110,98 111,97 112,98 113,97 114,96 115,97 116,98 117,99 118,100 119,101 120,102 121,103 122,104 123,105 124,104 125,103 126,102 127,101 128,102 129,101 130,100 131,101 132,102 133,103 134,102 135,101 136,100 137,101 138,100 139,99 140,100 141,99 142,98 143,99 144,98 145,99 146,100 147,99 148,98 149,99 150,100 151,99 152,100 153,101 154,100 155,99 156,100 157,101 158,102 159,103 160,104 161,105 162,106 163,105 164,104 165,103 166,102 167,101 168,102 169,103 170,102 171,103 172,102 173,101 174,102 175,103 176,102 177,101 178,100 179,99 180,98 181,99 182,98 183,97 184,96 185,97 186,96 187,97 188,96 189,95 190,94 191,93 192,94 193,95 194,96 195,95 196,96 197,95 198,94 199,95 200,94 201,95 202,94 203,93 204,94 205,93 206,92 207,93 208,94 209,95 210,94 211,95 212,96 213,97 214,96 215,95 216,94 217,95 218,94 219,93 220,92 221,91 222,90 223,89 224,88 225,87 226,86 227,85 228,84 229,83 230,82 231,81 232,80 233,81 234,82 235,81 236,82 237,81 238,82 239,81 240,80 241,81 242,82 243,83 244,82 245,83 246,84 247,85 248,84 249,85 250,86 251,87 252,86 253,85 254,86 255,87 256,86 257,87 258,88 259,89 260,90 261,89 262,90 263,91 264,92 265,93 266,92 267,91 268,90 269,89 270,88 271,87 272,86 273,85 274,86 275,87 276,86 277,87 278,86 279,85 280,84 281,85 282,86 283,87 284,86 285,85 286,86 287,85 288,84 289,83 290,84 291,85 292,84 293,83 294,84 295,83 296,84 297,83 298,82 299,81 300,80 301,79 302,78 303,79 304,80 305,79 306,78 307,77 308,78 309,79 310,78 311,79 312,78 313,79 314,78 315,77 316,76 317,75 318,76 319,75 320,76 321,77 322,76 323,77 324,78 325,77 326,78 327,77 328,78 329,79 330,78 331,77 332,78 333,77 334,76 335,77 336,78 337,77 338,78 339,77 340,78 341,79 342,80 343,79 344,78 345,77 346,78 347,77 348,78 349,77 350,76 351,77 352,78 353,77 354,76 355,75 356,76 357,75 358,74 359,73 360,72 361,71 362,72 363,73 364,72 365,71 366,70 367,71 368,72 369,73 370,74 371,75 372,76 373,75 374,74 375,73 376,72 377,71 378,70 379,69 380,68 381,67 382,66 383,67 384,66 385,67 386,66 387,65 388,64 389,63 390,62 391,61 392,60 393,61 394,60 395,61 396,60 397,61 398,60 399,59 400,150 " style="fill:rgb(217,163,3);stroke:rgb(117,63,0)"></polygon><polygon points="0,150 0,100 1,101 2,102 3,103 4,102 5,101 6,100 7,101 8,102 9,101 10,100 11,101 12,102 13,101 14,102 15,103 16,102 17,103 18,104 19,103 20,104 21,105 22,106 23,107 24,108 25,109 26,110 27,109 28,108 29,107 30,108 31,107 32,106 33,105 34,104 35,103 36,104 37,103 38,102 39,103 40,102 41,101 42,102 43,101 44,100 45,99 46,100 47,101 48,100 49,101 50,102 51,101 52,100 53,101 54,102 55,101 56,100 57,101 58,100 59,99 60,98 61,99 62,100 63,101 64,102 65,103 66,102 67,101 68,102 69,101 70,102 71,103 72,102 73,103 74,104 75,103 76,104 77,105 78,104 79,105 80,106 81,105 82,106 83,105 84,106 85,107 86,106 87,105 88,104 89,103 90,104 91,103 92,102 93,103 94,102 95,101 96,100 97,101 98,100 99,101 100,102 101,101 102,100 103,101 104,100 105,99 106,98 107,99 108,98 109,97 110,98 111,97 112,98 113,99 114,98 115,97 116,98 117,99 118,98 119,99 120,100 121,99 122,98 123,97 124,96 125,95 126,94 127,95 128,96 129,97 130,96 131,97 132,98 133,97 134,96 135,97 136,96 137,97 138,96 139,95 140,96 141,95 142,96 143,95 144,96 145,97 146,96 147,97 148,98 149,97 150,96 151,95 152,96 153,97 154,96 155,95 156,96 157,97 158,98 159,97 160,98 161,99 162,98 163,97 164,98 165,97 166,96 167,95 168,94 169,95 170,94 171,93 172,92 173,93 174,92 175,91 176,92 177,91 178,90 179,91 180,92 181,93 182,94 183,93 184,94 185,93 186,92 187,91 188,90 189,89 190,88 191,87 192,88 193,89 194,90 195,91 196,92 197,93 198,92 199,93 200,92 201,91 202,92 203,93 204,92 205,93 206,92 207,93 208,94 209,95 210,96 211,95 212,96 213,95 214,96 215,97 216,98 217,99 218,98 219,97 220,98 221,99 222,98 223,97 224,96 225,95 226,94 227,95 228,96 229,97 230,96 231,97 232,96 233,95 234,96 235,97 236,98 237,99 238,98 239,99 240,100 241,101 242,102 243,103 244,102 245,103 246,104 247,105 248,106 249,105 250,104 251,105 252,104 253,103 254,104 255,103 256,104 257,103 258,102 259,103 260,104 261,105 262,106 263,105 264,104 265,103 266,104 267,105 268,104 269,103 270,104 271,103 272,104 273,103 274,102 275,103 276,104 277,105 278,106 279,107 280,108 281,109 282,110 283,111 284,112 285,113 286,112 287,111 288,112 289,111 290,110 291,111 292,110 293,111 294,112 295,111 296,110 297,111 298,112 299,111 300,110 301,109 302,110 303,111 304,112 305,111 306,112 307,111 308,110 309,111 310,112 311,113 312,114 313,113 314,114 315,115 316,114 317,113 318,112 319,113 320,114 321,115 322,116 323,117 324,116 325,117 326,118 327,119 328,120 329,121 330,122 331,121 332,122 333,123 334,122 335,121 336,120 337,121 338,120 339,119 340,120 341,121 342,120 343,121 344,122 345,123 346,124 347,125 348,126 349,125 350,126 351,125 352,126 353,127 354,126 355,125 356,124 357,125 358,124 359,123 360,122 361,121 362,122 363,123 364,124 365,125 366,126 367,127 368,126 369,125 370,126 371,125 372,126 373,127 374,128 375,129 376,128 377,129 378,128 379,129 380,130 381,131 382,132 383,133 384,134 385,133 386,134 387,133 388,132 389,133 390,132 391,131 392,132 393,133 394,134 395,133 396,134 397,135 398,136 399,135 400,150 " style="fill:rgb(189,228,223);stroke:rgb(89,128,123)"></polygon></svg>